<mxfile host="app.diagrams.net" modified="2023-12-28T18:01:50.403Z" agent="Mozilla/5.0 (Macintosh; Intel Mac OS X 10_15_7) AppleWebKit/537.36 (KHTML, like Gecko) Chrome/120.0.0.0 Safari/537.36" etag="cEoeLDdL4bsN1Bd07OkD" version="22.1.15" type="github">
  <diagram name="Page-1" id="bvvcCBs9RpfNhJLarxdF">
    <mxGraphModel dx="1194" dy="765" grid="0" gridSize="10" guides="1" tooltips="1" connect="1" arrows="1" fold="1" page="0" pageScale="1" pageWidth="827" pageHeight="1169" math="0" shadow="0">
      <root>
        <mxCell id="0" />
        <mxCell id="1" parent="0" />
      </root>
    </mxGraphModel>
  </diagram>
</mxfile>
